<svg width="38" height="39" viewBox="0 0 38 39" fill="none" xmlns="http://www.w3.org/2000/svg">
<path d="M12.0909 3.95454H25.9091V5.68182H29.3636V7.40909H31.0909V9.13636H32.8182V29.8636H31.0909V31.5909H29.3636V33.3182H25.9091V35.0455H12.0909V33.3182H8.63637V31.5909H6.9091V29.8636H5.18182V9.13636H6.9091V7.40909H8.63637V5.68182H12.0909V3.95454ZM13.8182 28.1364V26.4091H10.3636V24.6818H8.63637V28.1364H10.3636V29.8636H13.8182V31.5909H24.1818V29.8636H27.6364V28.1364H29.3636V24.6818H27.6364V26.4091H24.1818V28.1364H13.8182ZM13.8182 19.5V17.7727H10.3636V16.0455H8.63637V21.2273H12.0909V22.9545H15.5455V24.6818H22.4546V22.9545H25.9091V21.2273H29.3636V16.0455H27.6364V17.7727H24.1818V19.5H13.8182ZM15.5455 14.3182V16.0455H22.4546V14.3182H25.9091V12.5909H29.3636V10.8636H27.6364V9.13636H24.1818V7.40909H13.8182V9.13636H10.3636V10.8636H8.63637V12.5909H12.0909V14.3182H15.5455Z" fill="#526FDF"/>
</svg>
